<svg class="prefix__icon" viewBox="0 0 1024 1024" xmlns="http://www.w3.org/2000/svg" width="200" height="200"><path d="M940.8 160l-57.6 70.4h6.4v428.8L704 441.6l-44.8 51.2 230.4 268.8v32H403.2l-64 70.4H928c19.2 0 32-12.8 32-32V192c0-12.8-6.4-25.6-19.2-32zm-704 633.6H134.4v-38.4l140.8-166.4 64 76.8 44.8-44.8-102.4-128c-6.4-6.4-6.4-6.4-12.8 0l-134.4 160V230.4h576l64-70.4H96c-19.2 0-32 12.8-32 32v640c0 19.2 12.8 32 32 32h76.8l64-70.4z" fill="#1296db"/><path d="M307.2 454.4c51.2 0 89.6-38.4 89.6-89.6s-44.8-83.2-89.6-83.2-89.6 38.4-89.6 89.6 38.4 83.2 89.6 83.2zm0-115.2c12.8 0 25.6 12.8 25.6 25.6s-12.8 32-25.6 32-32-12.8-32-25.6 12.8-32 32-32zM185.6 928l-32-32c-6.4-6.4-6.4-12.8 0-19.2l684.8-800c6.4-6.4 12.8-6.4 19.2 0l32 32c6.4 6.4 6.4 12.8 0 19.2L204.8 928c-6.4 6.4-12.8 6.4-19.2 0z" fill="#1296db"/></svg>